<svg width="430" height="567" viewBox="0 0 430 567" fill="none" xmlns="http://www.w3.org/2000/svg">
<path d="M281.5 24L215.5 0L147.5 24V94.5L73.5 118.5V50L1.5 77.5L0 213.5L215.5 135.5L430 213.5L428.5 78L356 50.5L357.5 120L281.5 93.5V24Z" fill="white"/>
<path d="M170 527.5V189L17 243.5V375.5C17 381.054 17.9153 384.177 19.5 389.5C21.3951 395.866 23.1741 399.251 26.5 405C30.2743 411.524 32.9161 414.936 38 420.5C44.0713 427.145 55.5 435.5 55.5 435.5L75.5 452.5L101.5 472.5L104 304L137.5 332.5V501L170 527.5Z" fill="white"/>
<path d="M215.5 566.5V169.5L412.5 242V369C412.5 374.467 412.717 381.5 412.5 383C411.713 388.442 410.603 391.419 408.5 396.5C406.193 402.072 404.441 405.047 401 410C396.818 416.02 393.639 418.774 388.5 424C380.155 432.488 365.5 444 365.5 444L215.5 566.5Z" fill="white"/>
</svg>
