<svg width="271" height="311" viewBox="0 0 271 311" fill="none" xmlns="http://www.w3.org/2000/svg">
<path d="M71.6716 100C67.192 65.7042 67.1719 44.5 61.6716 12.0002C61.3932 10.3553 61.2663 9.25921 60.1716 8.00022C59.1387 6.81222 58.1871 6.42644 56.6716 6.00022C54.9799 5.52442 53.929 6.00022 52.1716 6.00022H43.1716H35.6716C33.1332 6.00022 31.5309 5.06369 29.1716 6.00022C26.9862 6.8677 25.943 8.02234 24.6716 10.0002C22.8489 12.8357 23.796 15.1878 23.1716 18.5002C21.9515 24.9733 20.9289 28.5343 19.6716 35.0002C18.3849 41.6178 17.7987 45.3536 16.6716 52.0002C14.0954 67.193 12.7368 75.7296 10.6716 91.0002C8.90585 104.057 8.2541 111.42 6.67162 124.5C5.70294 132.507 4.98349 136.976 4.17162 145C3.10728 155.52 2.83275 161.448 2.17162 172C1.43812 183.708 1.06766 190.277 0.671617 202C0.355109 211.369 0.314222 216.627 0.171617 226C-0.214521 251.381 0.171617 265.616 0.171617 291V303.851C0.171617 304.935 0.454302 305.995 0.99173 306.935C1.75154 308.265 2.97486 309.268 4.42772 309.752L6.38291 310.404C7.56763 310.799 8.80827 311 10.0571 311H115.672H124.948C127.557 311 129.672 308.886 129.672 306.277C129.672 305.132 129.256 304.028 128.513 303.156C127.11 301.513 124.741 298.68 123.172 296.5C116.437 287.145 114.756 280.577 110.172 270C104.791 257.586 102.217 250.411 98.1716 237.5C94.7872 226.698 93.3846 220.49 90.6716 209.5C88.3672 200.165 87.1579 194.908 85.1716 185.5C82.7905 174.222 81.6387 167.858 79.6716 156.5C75.8688 134.542 74.5578 122.097 71.6716 100Z" fill="white"/>
<path d="M100.554 37.8099L95.6719 47L94.8479 49.2472C91.7419 57.7182 89.6682 66.5327 88.6719 75.5V89.5L90.1719 106.5L92.1719 119L92.2548 119.332C94.525 128.412 97.8535 137.195 102.172 145.5C107.154 154.468 113.182 162.815 120.128 170.365L121.172 171.5L126.511 175.897C128.615 177.629 130.855 179.19 133.209 180.563C138.799 183.824 145.017 185.996 151.419 186.944C153.903 187.312 156.433 187.5 158.944 187.5H160.291C164.867 187.5 169.432 187.048 173.919 186.151L176.102 185.714C181.802 184.574 187.377 182.882 192.779 180.733C195.858 179.509 198.462 178.5 198.672 178.5C199.072 178.5 213.172 170.5 220.172 166.5L230.672 158.5C235.339 154.333 244.972 145.7 246.172 144.5C246.828 143.844 249.206 140.868 251.772 137.597C255.723 132.561 259.177 127.157 262.172 121.5C264.172 116.667 268.172 106.8 268.172 106C268.172 105.2 268.839 100.667 269.172 98.5L269.911 93.5713C270.418 90.1951 270.672 86.7749 270.672 83.3609C270.672 77.1624 269.831 70.9724 268.172 65L265.172 57L261.172 47.5L260.649 46.5593C257.672 41.2001 254.162 36.1548 250.172 31.5L242.172 24L239.147 21.5514C234.175 17.5266 228.825 13.993 223.172 11C217.513 8.33681 211.668 6.08588 205.685 4.26478L203.172 3.5L195.632 2.0735C188.341 0.694191 180.937 0 173.518 0H170.83C166.066 0 161.31 0.393609 156.611 1.17681C151.33 2.05704 146.141 3.42576 141.113 5.26537L134.848 7.55737C130.412 9.18047 126.175 11.3053 122.222 13.8906C117.543 16.9495 113.3 20.627 109.607 24.8232L109.266 25.2111C105.882 29.0572 102.958 33.2855 100.554 37.8099Z" fill="white"/>
</svg>
